<svg xmlns="http://www.w3.org/2000/svg" width="38" height="42"><g fill="none" fill-rule="evenodd"><path stroke="#3C76F0" stroke-linejoin="round" stroke-width="2.16" d="M8.336 40.373h2.904V2.04H8.336z"/><path stroke="#3C76F0" stroke-linejoin="round" stroke-width="2.16" d="M11.24 4.623L8.419 4.54l-7.384 7.583h35.011z"/><path stroke="#3C76F0" stroke-linejoin="round" stroke-width="2.16" d="M11.489 11.873l5.558-5.416 5.974 5.666 3.028-3M11.406 33.832l6.72 6.541H4.437l3.899-6.541z"/><path d="M.498 40.913H37.33V1.5H.498z"/><path stroke="#3C76F0" stroke-linejoin="round" stroke-width="2.16" d="M33.723 23.248h2.738v-2.916h-2.738z"/><path stroke="#3C76F0" stroke-linecap="round" stroke-linejoin="round" stroke-width="2.16" d="M35.092 23.373v1.459c.94 0 1.7.806 1.7 1.75 0 .943-.76 1.708-1.7 1.708a1.704 1.704 0 0 1-1.667-2.053"/></g></svg>