<svg xmlns="http://www.w3.org/2000/svg" width="42" height="42"><g fill="none" fill-rule="evenodd" stroke="#3C76F0" stroke-linejoin="round" stroke-width="2.16"><path d="M31.012 40.23c-5.676-3.343-8.23-6.494-8.358-16.327l-.008-.653.643-.109c1.275-.217 2.273-.987 3.33-1.801 1.332-1.028 2.71-2.09 4.78-2.09 2.07 0 3.448 1.062 4.78 2.089 1.057.815 2.056 1.585 3.33 1.802l.643.11-.009.652c-.127 9.834-2.68 12.985-8.357 16.327l-.387.228-.387-.228zM30.871 11.719H2.397L1.38 8.159h30.508z"/><path d="M26.369 21.671L5.956 20.235l-2.479-8.517h25.996l-2.479 9.28"/><path stroke-linecap="round" d="M28.075 15.214h-9.661m4.258 10.106H6.592m9.025-10.106h-.89m12.776 3.37H22.48m11.187-15.7s-1.843.254-2.161 1.335c-.318 1.08-1.017 3.813-1.017 3.813M38.437 4.981h-3.056a1.714 1.714 0 0 1-1.713-1.713v-.005c0-.947.767-1.714 1.713-1.714h3.056c.947 0 1.714.767 1.714 1.714v.005c0 .946-.767 1.713-1.714 1.713zM12.244 31.206a2.602 2.602 0 1 1-5.203 0 2.602 2.602 0 0 1 5.203 0zm-1.712-5.737l-.763 3.05m-.127 5.289h4.577m14.194.432s2.628 2.415 2.924 2.415c.297 0 2.839-1.949 3.856-3.898.983-1.885 1.187-4.153 1.187-4.153m.254-2.246l.042-1.229"/></g></svg>