<?xml version="1.0" encoding="utf-8"?>
<!-- Generator: Adobe Illustrator 18.0.0, SVG Export Plug-In . SVG Version: 6.00 Build 0)  -->
<!DOCTYPE svg PUBLIC "-//W3C//DTD SVG 1.1//EN" "http://www.w3.org/Graphics/SVG/1.1/DTD/svg11.dtd">
<svg version="1.1" id="Слой_1" xmlns="http://www.w3.org/2000/svg" xmlns:xlink="http://www.w3.org/1999/xlink" x="0px" y="0px" width="20" height="20"
	 viewBox="0 0 20 20" enable-background="new 0 0 20 20" xml:space="preserve">
<path d="M18.3,9.3c0.5,0,0.9,0.2,1.2,0.5S20,10.5,20,11c0,0.8-0.4,1.3-1.1,1.6l-2.1,0.7l0.7,2c0.1,0.2,0.1,0.4,0.1,0.6
	c0,0.5-0.2,0.9-0.5,1.2s-0.7,0.5-1.2,0.5c-0.4,0-0.7-0.1-1-0.3c-0.3-0.2-0.5-0.5-0.6-0.9l-0.7-2l-3.7,1.3l0.7,2
	c0.1,0.2,0.1,0.4,0.1,0.6c0,0.5-0.2,0.9-0.5,1.2S9.3,20,8.8,20c-0.4,0-0.7-0.1-1-0.3c-0.3-0.2-0.5-0.5-0.6-0.9l-0.7-2l-1.8,0.6
	c-0.2,0.1-0.4,0.1-0.6,0.1c-0.5,0-0.9-0.2-1.2-0.5s-0.5-0.7-0.5-1.2c0-0.4,0.1-0.7,0.3-1c0.2-0.3,0.5-0.5,0.9-0.6l1.9-0.6L4.2,9.8
	l-1.9,0.6c-0.2,0.1-0.4,0.1-0.6,0.1c-0.5,0-0.9-0.2-1.2-0.5S0,9.4,0,8.9c0-0.4,0.1-0.7,0.3-1c0.2-0.3,0.5-0.5,0.9-0.6l1.9-0.6
	L2.4,4.7C2.4,4.5,2.3,4.3,2.3,4.1c0-0.5,0.2-0.9,0.5-1.2s0.7-0.5,1.2-0.5c0.4,0,0.7,0.1,1,0.3c0.3,0.2,0.5,0.5,0.6,0.9l0.6,1.9
	l3.7-1.3L9.5,2.3C9.4,2.1,9.4,1.9,9.4,1.7c0-0.5,0.2-0.9,0.5-1.2S10.6,0,11.1,0c0.4,0,0.7,0.1,1,0.3c0.3,0.2,0.5,0.5,0.6,0.9
	l0.6,1.9l1.9-0.7c0.2,0,0.3-0.1,0.5-0.1c0.5,0,0.9,0.2,1.2,0.5c0.3,0.3,0.5,0.7,0.5,1.2c0,0.4-0.1,0.7-0.4,1
	c-0.2,0.3-0.5,0.5-0.9,0.6l-1.9,0.6l1.3,3.8l2-0.7C17.9,9.4,18.1,9.3,18.3,9.3z M8.7,12.5l3.7-1.3l-1.3-3.8L7.5,8.7L8.7,12.5z"/>
</svg>
