<svg xmlns="http://www.w3.org/2000/svg" width="40" height="40"><g fill="none" fill-rule="evenodd"><path stroke="#3C76F0" stroke-linecap="round" stroke-linejoin="round" stroke-width="2.16" d="M12.143 32.629l9.802-14.709a1.473 1.473 0 0 1 2.412.006l14.055 20.937M1.13 38.802l9.925-14.462a1.473 1.473 0 0 1 2.412.006l2.05 3.053"/><path fill="#3C76F0" d="M10.583 35.407a.532.532 0 1 1-.532-.534c.294 0 .532.239.532.534m8.87-34.27a.567.567 0 1 1 .02 0h-.02zm-2.82-.195A.57.57 0 0 1 17.117.3v.005a.56.56 0 0 1 .64.48.568.568 0 0 1-.482.641c-.025.005-.05.005-.08.005a.567.567 0 0 1-.56-.489zm5.045.484a.568.568 0 1 1 .64-.484.57.57 0 0 1-.56.489c-.03 0-.055 0-.08-.005zm-7.254.084a.57.57 0 0 1 .384-.706.56.56 0 0 1 .699.385.57.57 0 0 1-.542.73.563.563 0 0 1-.54-.409zm9.405.385a.57.57 0 0 1 .315-1.091.57.57 0 0 1-.315 1.091zm-11.516.49a.568.568 0 0 1 .28-.752.559.559 0 0 1 .748.282.566.566 0 1 1-1.028.47zm13.578.28a.562.562 0 0 1-.28-.75.565.565 0 0 1 .748-.282.57.57 0 0 1-.236 1.087.566.566 0 0 1-.232-.054zm-15.537.89a.565.565 0 1 1 .95-.612.573.573 0 0 1-.168.784.592.592 0 0 1-.31.09.555.555 0 0 1-.472-.263zm17.466.172a.567.567 0 0 1 .616-.953c.26.168.334.519.167.785a.564.564 0 0 1-.477.257.535.535 0 0 1-.306-.089zM8.572 4.997a.577.577 0 0 1 .06-.805.566.566 0 0 1 .797.059A.566.566 0 0 1 9 5.19a.569.569 0 0 1-.429-.194zm21.01.059a.572.572 0 0 1-.054-.805.566.566 0 0 1 .851.746.564.564 0 0 1-.797.06zM7.017 6.67a.567.567 0 0 1-.054-.8.562.562 0 0 1 .797-.06c.237.208.261.563.054.8a.566.566 0 0 1-.797.06zm24.12-.055a.57.57 0 0 1 .06-.8.561.561 0 0 1 .797.055.572.572 0 0 1-.054.804.594.594 0 0 1-.374.139.574.574 0 0 1-.428-.198zM5.714 8.552a.569.569 0 0 1-.167-.785.564.564 0 1 1 .95.612.557.557 0 0 1-.478.262.576.576 0 0 1-.305-.089zm26.748-.168a.565.565 0 1 1 .95-.612.573.573 0 0 1-.167.785.567.567 0 0 1-.783-.173zM4.69 10.601a.57.57 0 0 1 .468-1.037c.285.134.408.47.28.756a.566.566 0 0 1-.748.281zm28.826-.281a.567.567 0 0 1 .28-.75.559.559 0 0 1 .748.28.566.566 0 1 1-1.028.47zm-29.55 2.454a.57.57 0 0 1 .32-1.091.57.57 0 0 1-.32 1.091zm30.317-.385a.573.573 0 0 1 .384-.706.57.57 0 1 1 .157 1.116.572.572 0 0 1-.54-.41zm.468 2.158a.568.568 0 0 1 .482-.642.57.57 0 0 1 .64.484.574.574 0 0 1-.482.642c-.025 0-.054.005-.079.005a.568.568 0 0 1-.561-.489zm-31.495 2.83a.57.57 0 0 1-.483-.642.567.567 0 1 1 1.122.158.568.568 0 0 1-.56.489c-.025 0-.05 0-.08-.005zm.307-2.346a.57.57 0 0 1-.482-.642.567.567 0 1 1 1.122.158.568.568 0 0 1-.561.489c-.025 0-.05 0-.079-.005zm31.808 2.286a.566.566 0 1 1 .586-.543.566.566 0 0 1-.566.548c-.005 0-.01 0-.02-.005zM3.08 19.11a.566.566 0 1 1 1.122-.158.568.568 0 0 1-.482.642c-.025 0-.054.005-.079.005a.571.571 0 0 1-.561-.489zm32.147.494a.568.568 0 0 1-.477-.642.564.564 0 1 1 1.117.163h.005a.575.575 0 0 1-.56.489c-.03 0-.055-.005-.085-.01zM3.582 21.426a.564.564 0 1 1 1.083-.316.562.562 0 0 1-.384.701.563.563 0 0 1-.699-.385zm31.084.4a.57.57 0 0 1 .32-1.09c.3.088.468.404.38.705h.004a.573.573 0 0 1-.546.41.592.592 0 0 1-.158-.025zM4.404 23.648a.573.573 0 0 1 .28-.755c.286-.129.62 0 .748.281a.572.572 0 0 1-.275.756.572.572 0 0 1-.236.05.566.566 0 0 1-.517-.332zm29.386.297a.575.575 0 0 1-.28-.756.575.575 0 0 1 .753-.281c.285.133.408.469.275.755a.564.564 0 0 1-.748.282zM5.536 25.727a.566.566 0 1 1 .955-.612.57.57 0 0 1-.478.874.567.567 0 0 1-.477-.262z"/></g></svg>