<?xml version="1.0" encoding="utf-8"?>
<!-- Generator: Adobe Illustrator 20.1.0, SVG Export Plug-In . SVG Version: 6.00 Build 0)  -->
<svg version="1.1" id="Layer_1" xmlns="http://www.w3.org/2000/svg" xmlns:xlink="http://www.w3.org/1999/xlink" x="0px" y="0px"
	 viewBox="0 0 576 142.4" style="enable-background:new 0 0 576 142.4;" xml:space="preserve">
<g>
	<path d="M14,111.6c7.3,7.9,19.3,14,29.9,14c11.8,0,18.9-6.7,18.9-12c0-6.3-4.9-9.6-12.4-11l-11.6-2.2
		C12,95.4,4.5,86.8,4.5,73.2c0-16.1,13.6-31.1,37.4-31.1c13.2,0,24.8,3.9,37.8,13.2L68,69.7c-10-8.5-18.9-10.6-25.6-10.6
		c-8.8,0-17.5,4.3-17.5,12c0,5.7,4.5,8.7,12.4,10L58,85c16.9,3.1,25.2,11.2,25.2,25.4c0,14-11.4,32.1-40.3,32.1
		c-16.1,0-29.9-5.7-42.9-16.7L14,111.6z"/>
	<path d="M143.9,42.1c33.2,0,52.5,25,52.5,50.1s-19.3,50.1-52.5,50.1c-33.2,0-52.5-25-52.5-50.1S110.6,42.1,143.9,42.1
		 M143.9,123.2c17.9,0,30.9-13.8,30.9-30.9s-13-30.9-30.9-30.9C126,61.4,113,75.2,113,92.3S126,123.2,143.9,123.2"/>
	<path d="M266.9,16.1c5.7,0,10.3,4.6,10.3,10.3c0,5.7-4.6,10.3-10.3,10.3c-5.7,0-10.3-4.6-10.3-10.3
		C256.6,20.7,261.2,16.1,266.9,16.1"/>
	<rect x="256.7" y="57.1" width="20.4" height="85.3"/>
	<path d="M371.5,16.1V52c-8.4-6.1-19.2-9.8-32.1-9.8c-33.2,0-52.5,25-52.5,50.1s19.3,50.1,52.5,50.1
		c12.9,0,23.7-3.8,32.1-9.8v9.8h20.4V16.1H371.5z M339.4,123.2c-17.9,0-30.9-13.8-30.9-30.9s13-30.9,30.9-30.9
		c17.9,0,30.9,13.8,30.9,30.9S357.3,123.2,339.4,123.2z"/>
	<path d="M402.2,42.3h20.4V98c0,14,10.2,24,23,24c12.8,0,23-10,23-24V42.3h20.4v57.5c0,26.7-20.8,42.7-43.5,42.7
		c-22.6,0-43.5-15.9-43.5-42.7V42.3z"/>
	<path d="M506.8,111.8c7.3,7.9,19.3,14,29.9,14c11.8,0,18.9-6.7,18.9-12c0-6.3-4.9-9.6-12.4-11l-11.6-2.2
		c-26.7-4.9-34.2-13.6-34.2-27.1c0-16.1,13.6-31.1,37.4-31.1c13.2,0,24.8,3.9,37.8,13.2L560.9,70c-10-8.5-18.9-10.6-25.6-10.6
		c-8.8,0-17.5,4.3-17.5,12c0,5.7,4.5,8.7,12.4,10l20.6,3.9c16.9,3.1,25.2,11.2,25.2,25.4c0,14-11.4,32.1-40.3,32.1
		c-16.1,0-29.9-5.7-42.9-16.7L506.8,111.8z"/>
	<path d="M235.4,120c-5.7-3.3-8-7-8.3-16.6l0,0V37.2c0-19.9-9.8-27.1-30.9-37.2l-9,16.1l11,6.3c5.7,3.3,8,7,8.3,16.6
		l0,0v66.3c0,19.9,9.8,27.1,30.9,37.2l9-16.1L235.4,120z"/>
</g>
</svg>
