<svg width="153" height="38" viewBox="0 0 153 38" xmlns="http://www.w3.org/2000/svg"><g fill="#242830" fill-rule="nonzero"><path d="M45.0815035 17.9295775l-4.2797203-.808169c-1.6476923-.2729578-2.5838811-.899155-2.5838811-2.0819719 0-1.6056338 1.8135315-2.4994366 3.6431119-2.4994366 1.3962587 0 3.2472377.4335211 5.3496503 2.2050704l2.4340909-2.9971831c-2.706923-1.93746476-5.1196153-2.75098589-7.863986-2.75098589-4.9537762 0-7.7890909 3.12563379-7.7890909 6.47605629 0 2.8312677 1.5620979 4.6242254 7.1417832 5.6678874l2.4126923.4549295c1.5620979.2943662 2.5838812.9794367 2.5838812 2.2907043 0 1.1025352-1.4818532 2.4994366-3.9373427 2.4994366-2.2040559 0-4.7023426-1.2684507-6.2216433-2.9169014l-2.9637063 2.9597183c2.706923 2.2907042 5.5796853 3.4788732 8.9285664 3.4788732 6.0183566 0 8.3882517-3.7464788 8.3882517-6.6847887s-1.727937-4.6456338-5.2426573-5.2932394zM62.960035 8.99690141c-6.9545455 0-10.9293357 5.20760559-10.9293357 10.43661969 0 5.2290141 4.0175874 10.4312676 10.9293357 10.4312676 6.9117482 0 10.9293356-5.2076056 10.9293356-10.4312676 0-5.2236619-4.0175874-10.43661969-10.9293356-10.43661969zm0 16.89126759c-3.5454364 0-6.4195805-2.8754669-6.4195805-6.4225352 0-3.5470682 2.8741441-6.4225352 6.4195805-6.4225352 3.5454363 0 6.4195804 2.875467 6.4195804 6.4225352.0277543 1.7117236-.6396762 3.3615035-1.8496498 4.572034-1.2099737 1.2105306-2.8589946 1.8782684-4.5699306 1.8505012zM88.5634615 3.58591549c-1.1818121 0-2.1398601.95848899-2.1398601 2.14084507 0 1.18235609.958048 2.14084507 2.1398601 2.14084507 1.1818122 0 2.1398602-.95848898 2.1398602-2.14084507 0-1.18235608-.958048-2.14084507-2.1398602-2.14084507zm-2.1238112 8.53661971h4.2476224v17.763662h-4.2476224v-17.763662zm23.8915387-1.0597183c-1.951059-1.37951017-4.293144-2.09615393-6.681713-2.04450704-6.9063991 0-10.9239865 5.20760564-10.9239865 10.43126764 0 5.2236619 4.0175874 10.4366197 10.9239865 10.4366197 2.388342.0384309 4.727465-.6810542 6.681713-2.0552113v2.0445071h4.247622V3.58591549h-4.247622v7.47690141zm-6.681713 14.8253521c-3.545437 0-6.4195809-2.8754669-6.4195809-6.4225352 0-3.5470682 2.8741439-6.4225352 6.4195809-6.4225352 3.545436 0 6.41958 2.875467 6.41958 6.4225352.027754 1.7117236-.639676 3.3615035-1.84965 4.572034-1.209974 1.2105306-2.858994 1.8782684-4.56993 1.8505012zm26.881993-5.2504225c0 2.9169014-2.139861 4.9988732-4.787938 4.9988732-2.648076 0-4.787937-2.0819718-4.787937-4.9988732V9.03971831h-4.27972V21.0123944c0 5.5822535 4.349266 8.8952112 9.051609 8.8952112 4.702342 0 9.083706-3.3343662 9.083706-8.8952112V9.03971831h-4.27972V20.6377465zm17.118881-2.6439437l-4.279721-.8135211c-1.647692-.2676056-2.583881-.8938028-2.583881-2.0819718 0-1.6056338 1.813532-2.4994367 3.643112-2.4994367 1.396259 0 3.247238.4388733 5.34965 2.2104226l2.434091-2.9971831c-2.701573-1.93746481-5.119615-2.75098594-7.863986-2.75098594-4.953776 0-7.783741 3.12563384-7.783741 6.47605634 0 2.8098592 1.556748 4.6242254 7.115035 5.6411268l2.418042.4602816c1.556748.2890141 2.578532.9794367 2.578532 2.2907043 0 1.1025352-1.476504 2.4994366-3.931993 2.4994366-2.209406 0-4.707693-1.2684507-6.226993-2.9169014l-2.91021 2.9811267c2.680175 2.2907043 5.547587 3.4788733 8.901818 3.4788733 6.013007 0 8.388252-3.7464789 8.388252-6.6847887 0-2.9383099-1.727937-4.6456338-5.248007-5.2932395zm-67.3734969 3.7678873V7.98c0-4.14788732-2.0382167-5.64647887-6.4195804-7.74985916L71.9848951 3.5859155l2.2896504 1.31126761c1.1822727.68507042 1.6637412 1.45577465 1.727937 3.45746479V22.1577465c0 4.1478873 2.0382168 5.6464789 6.4195804 7.7498591l1.8723777-3.3557746-2.2896504-1.3326761c-1.1876224-.6850704-1.6637412-1.4557746-1.7279371-3.4574648zM.20863636 37.8876056H23.6829021V.15521127H.20863636V37.8876056zM3.56821678 3.51633803H20.2698252V34.4729577H3.56821678V3.51633803z"/><path d="M13.5934615 24.2450704V13.6104225c0-3.2112676-1.5727972-4.35126757-4.95912584-5.97295771L7.18993007 10.2225352l1.76538462 1.0169014c.91479021.5352113 1.28391611 1.1239437 1.33206291 2.6760564v10.6507042c0 3.2112676 1.5727972 4.3512676 4.9591259 5.9729577l1.4497552-2.5850704-1.7707342-1.043662c-.9147902-.5298591-1.2839161-1.1239436-1.332063-2.6653521z"/></g></svg>