<svg xmlns="http://www.w3.org/2000/svg" width="20" height="20"><g fill="none" fill-rule="evenodd"><path class="inherit-fill" fill="#000" fill-rule="nonzero" d="M10 0c5.523 0 10 4.59 10 10.253 0 4.529-2.862 8.37-6.833 9.728-.507.1-.687-.22-.687-.492 0-.338.012-1.442.012-2.814 0-.956-.32-1.58-.679-1.898 2.227-.254 4.567-1.121 4.567-5.059 0-1.12-.388-2.034-1.03-2.752.104-.259.447-1.302-.098-2.714 0 0-.838-.275-2.747 1.051A9.396 9.396 0 0 0 10 4.958a9.375 9.375 0 0 0-2.503.345C5.586 3.977 4.746 4.252 4.746 4.252c-.543 1.412-.2 2.455-.097 2.714-.639.718-1.03 1.632-1.03 2.752 0 3.928 2.335 4.808 4.556 5.067-.286.256-.545.708-.635 1.37-.57.263-2.018.716-2.91-.851 0 0-.529-.985-1.533-1.057 0 0-.975-.013-.068.623 0 0 .655.315 1.11 1.5 0 0 .587 1.83 3.369 1.21.005.857.014 1.665.014 1.909 0 .27-.184.588-.683.493C2.865 18.627 0 14.782 0 10.253 0 4.59 4.478 0 10 0"/><path d="M-2-2h24v24H-2z"/></g></svg>