<svg width="18" height="18" viewBox="0 0 18 18" fill="none" xmlns="http://www.w3.org/2000/svg">
<g id="inbox-line">
<path id="Vector" d="M15.75 2.25C16.1642 2.25 16.5 2.58579 16.5 3V15C16.5 15.4142 16.1642 15.75 15.75 15.75H2.25C1.83579 15.75 1.5 15.4142 1.5 15V3C1.5 2.58579 1.83579 2.25 2.25 2.25H15.75ZM5.56203 10.5H3V14.25H15V10.5H12.438C11.8593 11.8244 10.5377 12.75 9 12.75C7.46226 12.75 6.1407 11.8244 5.56203 10.5ZM15 3.75H3V9H6.75C6.75 10.2427 7.75733 11.25 9 11.25C10.2427 11.25 11.25 10.2427 11.25 9H15V3.75Z" fill="#222222"/>
</g>
</svg>
