<svg width="18" height="18" viewBox="0 0 18 18" fill="none" xmlns="http://www.w3.org/2000/svg">
<g id="megaphone-line">
<path id="Vector" d="M6.75 12.75C6.75 12.75 12 13.5 14.25 15.75H15C15.4142 15.75 15.75 15.4142 15.75 15V10.4528C16.3969 10.2863 16.875 9.69893 16.875 9C16.875 8.30107 16.3969 7.71375 15.75 7.54725V3C15.75 2.58579 15.4142 2.25 15 2.25H14.25C12 4.5 6.75 5.25 6.75 5.25H3.75C2.92157 5.25 2.25 5.92157 2.25 6.75V11.25C2.25 12.0785 2.92157 12.75 3.75 12.75H4.5L5.25 16.5H6.75V12.75ZM8.25 6.4959C8.76248 6.38595 9.39562 6.23395 10.0795 6.0328C11.3381 5.6626 12.9375 5.07947 14.25 4.18094V13.819C12.9375 12.9205 11.3381 12.3374 10.0795 11.9672C9.39562 11.7661 8.76248 11.614 8.25 11.5041V6.4959ZM3.75 6.75H6.75V11.25H3.75V6.75Z" fill="#222222"/>
</g>
</svg>
