<svg width="18" height="18" viewBox="0 0 18 18" fill="none" xmlns="http://www.w3.org/2000/svg">
<g id="price-tag-3-line">
<path id="Vector" d="M8.17815 1.5752L15.6028 2.63585L16.6634 10.0605L9.76913 16.9548C9.47625 17.2476 9.00143 17.2476 8.70848 16.9548L1.28388 9.53015C0.990985 9.23727 0.990985 8.76237 1.28388 8.4695L8.17815 1.5752ZM8.70848 3.16619L2.87487 8.99982L9.2388 15.3638L15.0725 9.53015L14.277 3.96168L8.70848 3.16619ZM10.2995 7.93917C9.7137 7.35337 9.7137 6.40362 10.2995 5.81783C10.8853 5.23205 11.835 5.23205 12.4208 5.81783C13.0066 6.40362 13.0066 7.35337 12.4208 7.93917C11.835 8.52492 10.8853 8.52492 10.2995 7.93917Z" fill="#222222"/>
</g>
</svg>
