<svg width="18" height="18" viewBox="0 0 18 18" fill="none" xmlns="http://www.w3.org/2000/svg">
<g id="settings-line">
<path id="Vector" d="M9 0.75L16.125 4.875V13.125L9 17.25L1.875 13.125V4.875L9 0.75ZM9 2.48325L3.375 5.73983V12.2602L9 15.5167L14.625 12.2602V5.73983L9 2.48325ZM9 12C7.34314 12 6 10.6568 6 9C6 7.34314 7.34314 6 9 6C10.6568 6 12 7.34314 12 9C12 10.6568 10.6568 12 9 12ZM9 10.5C9.82845 10.5 10.5 9.82845 10.5 9C10.5 8.17155 9.82845 7.5 9 7.5C8.17155 7.5 7.5 8.17155 7.5 9C7.5 9.82845 8.17155 10.5 9 10.5Z" fill="#222222"/>
</g>
</svg>
