<svg xmlns="http://www.w3.org/2000/svg" xmlns:xlink="http://www.w3.org/1999/xlink" version="1.1" id="layer" x="0px" y="0px" style="enable-background:new 0 0 652 652;" xml:space="preserve" viewBox="21.7 247.1 600 148.3">
<style type="text/css">
	.st0{fill:#242830;}
</style>
<title>Solidus Logo</title>
<path class="st0" d="M198,317l-16.8-3.2c-6.5-1.1-10.2-3.5-10.2-8.2c0-6.3,7.1-9.8,14.3-9.8c5.5,0,12.8,1.7,21,8.7l9.6-11.8  c-10.6-7.6-20.1-10.8-30.9-10.8c-19.5,0-30.6,12.3-30.6,25.4c0,11.1,6.1,18.2,28.1,22.3l9.5,1.8c6.1,1.2,10.2,3.8,10.2,9  c0,4.3-5.8,9.8-15.5,9.8c-8.7,0-18.5-5-24.4-11.5l-11.6,11.6c10.6,9,21.9,13.7,35.1,13.7c23.6,0,33-14.7,33-26.3  S211.9,319.5,198,317z M268.3,281.9c-27.3,0-42.9,20.5-42.9,41c0,20.5,15.8,41,42.9,41s42.9-20.5,42.9-41S295.5,281.9,268.3,281.9z   M268.3,348.2c-13.9,0-25.2-11.3-25.2-25.2c0-13.9,11.3-25.2,25.2-25.2c13.9,0,25.2,11.3,25.2,25.2c0.2,13.7-10.7,25-24.4,25.2  c0,0,0,0,0,0H268.3z M368.9,260.6c-4.6,0-8.4,3.8-8.4,8.4s3.8,8.4,8.4,8.4c4.6,0,8.4-3.8,8.4-8.4S373.5,260.6,368.9,260.6z   M360.6,294.2h16.7v69.8h-16.7V294.2z M454.4,290c-7.7-5.4-16.9-8.2-26.3-8c-27.1,0-42.9,20.5-42.9,41c0,20.5,15.8,41,42.9,41  c9.4,0.2,18.6-2.7,26.3-8.1v8h16.7V260.6h-16.7V290z M428.2,348.2c-13.9,0-25.2-11.3-25.2-25.2c0-13.9,11.3-25.2,25.2-25.2  s25.2,11.3,25.2,25.2c0.2,13.7-10.7,25-24.4,25.2c0,0,0,0,0,0H428.2z M533.8,327.6c1.1,10.4-6.4,19.7-16.8,20.8  c-10.4,1.1-19.7-6.4-20.8-16.8c-0.1-1.3-0.1-2.7,0-4V282h-16.8v47.1c0,21.9,17.1,34.9,35.6,34.9c18.5,0,35.7-13.1,35.7-34.9V282  h-16.8L533.8,327.6z M601.1,317.2l-16.8-3.2c-6.5-1.1-10.2-3.5-10.2-8.2c0-6.3,7.1-9.8,14.3-9.8c5.5,0,12.8,1.7,21,8.7l9.6-11.8  c-10.6-7.6-20.1-10.8-30.9-10.8c-19.5,0-30.6,12.3-30.6,25.4c0,11,6.1,18.2,28,22.2l9.5,1.8c6.1,1.1,10.1,3.8,10.1,9  c0,4.3-5.8,9.8-15.5,9.8c-8.7,0-18.5-5-24.5-11.5l-11.4,11.7c10.5,9,21.8,13.7,35,13.7c23.6,0,33-14.7,33-26.3  S614.9,319.8,601.1,317.2z M336.3,332v-54.1c0-16.3-8-22.2-25.2-30.4l-7.4,13.2l9,5.2c4.6,2.7,6.5,5.7,6.8,13.6v54.2  c0,16.3,8,22.2,25.2,30.4l7.4-13.2l-9-5.2C338.5,342.9,336.6,339.9,336.3,332z M21.7,395.4H114V247.1H21.7V395.4z M34.9,260.4h65.6  v121.6H34.9V260.4z M74.3,341.7V300c0-12.6-6.2-17.1-19.5-23.5l-5.7,10.2l6.9,4c3.6,2.1,5,4.4,5.2,10.5V343  c0,12.6,6.2,17.1,19.5,23.5l5.7-10.2l-6.9-4.1C75.9,350.2,74.5,347.8,74.3,341.7z"/>
</svg>