<svg width="18" height="18" viewBox="0 0 18 18" fill="none" xmlns="http://www.w3.org/2000/svg">
<g id="stack-line">
<path id="Vector" d="M15.0625 11.3999L15.9641 11.9408C16.1416 12.0474 16.1992 12.2777 16.0927 12.4553C16.061 12.5081 16.0168 12.5522 15.9641 12.584L9.3858 16.5308C9.14828 16.6733 8.85158 16.6733 8.61405 16.5308L2.03588 12.584C1.85829 12.4774 1.8007 12.2471 1.90726 12.0695C1.93892 12.0167 1.9831 11.9725 2.03588 11.9408L2.93745 11.3999L8.99993 15.0374L15.0625 11.3999ZM15.0625 7.87485L15.9641 8.41583C16.1416 8.5224 16.1992 8.75273 16.0927 8.93033C16.061 8.98305 16.0168 9.02723 15.9641 9.05895L8.99993 13.2374L2.03588 9.05895C1.85829 8.95238 1.8007 8.72205 1.90726 8.54445C1.93892 8.49165 1.9831 8.44748 2.03588 8.41583L2.93745 7.87485L8.99993 11.5124L15.0625 7.87485ZM9.3858 0.981392L15.9641 4.92831C16.1416 5.03486 16.1992 5.26521 16.0927 5.4428C16.061 5.49559 16.0168 5.53976 15.9641 5.57143L8.99993 9.74985L2.03588 5.57143C1.85829 5.46488 1.8007 5.23453 1.90726 5.05694C1.93892 5.00415 1.9831 4.95998 2.03588 4.92831L8.61405 0.981392C8.85158 0.838885 9.14828 0.838885 9.3858 0.981392ZM8.99993 2.49916L4.41542 5.24987L8.99993 8.00055L13.5845 5.24987L8.99993 2.49916Z" fill="#222222"/>
</g>
</svg>
