<svg xmlns="http://www.w3.org/2000/svg" width="17" height="15" viewBox="0 0 17 15">
    <path class="inherit-fill" fill="#000" fill-rule="nonzero" d="M16.768 1.771L14.542.093A.406.406 0 0 0 14.29 0a.398.398 0 0 0-.255.097l-8.098 9.946S2.753 7.117 2.664 7.031c-.089-.085-.207-.228-.385-.228-.178 0-.26.12-.353.21C1.857 7.081.722 8.22.162 8.786a1.689 1.689 0 0 1-.08.082.371.371 0 0 0-.082.22c0 .086.032.156.081.222l.114.1s5.648 5.187 5.742 5.276c.093.09.206.202.373.202.162 0 .296-.167.373-.24L16.784 2.243a.374.374 0 0 0 .081-.224.389.389 0 0 0-.097-.249z" opacity=".32"/>
</svg>
