<?xml version="1.0" encoding="utf-8"?>
<!-- Generator: Adobe Illustrator 18.0.0, SVG Export Plug-In . SVG Version: 6.00 Build 0)  -->
<!DOCTYPE svg PUBLIC "-//W3C//DTD SVG 1.1//EN" "http://www.w3.org/Graphics/SVG/1.1/DTD/svg11.dtd">
<svg version="1.1" id="Слой_1" xmlns="http://www.w3.org/2000/svg" xmlns:xlink="http://www.w3.org/1999/xlink" x="0px" y="0px" width="13" height="13"
	 viewBox="0 0 13 13" enable-background="new 0 0 13 13" xml:space="preserve">
<path class="inherit-fill" fill="#3c76f0" d="M10.2,7.7v2.3c0,0.6-0.2,1.1-0.6,1.5s-0.9,0.6-1.5,0.6h-6c-0.6,0-1.1-0.2-1.5-0.6S0,10.6,0,10.1V4C0,3.4,0.2,3,0.6,2.5
	s0.9-0.6,1.5-0.6h5.1c0.1,0,0.1,0,0.2,0.1s0.1,0.1,0.1,0.2v0.5c0,0.1,0,0.1-0.1,0.2c0,0-0.1,0.1-0.2,0.1H2.1C1.8,2.9,1.5,3,1.3,3.2
	S0.9,3.7,0.9,4v6c0,0.3,0.1,0.6,0.3,0.8c0.2,0.2,0.5,0.3,0.8,0.3h6c0.3,0,0.6-0.1,0.8-0.3c0.2-0.2,0.3-0.5,0.3-0.8V7.7
	c0-0.1,0-0.1,0.1-0.2c0,0,0.1-0.1,0.2-0.1H10c0.1,0,0.1,0,0.2,0.1C10.2,7.6,10.2,7.7,10.2,7.7z M13,1.5v3.7c0,0.1,0,0.2-0.1,0.3
	c-0.1,0.1-0.2,0.1-0.3,0.1c-0.1,0-0.2,0-0.3-0.1l-1.3-1.3L6.2,9C6.2,9,6.1,9,6,9C6,9,5.9,9,5.9,9L5,8.1C5,8.1,5,8,5,8
	C5,7.9,5,7.8,5,7.8l4.7-4.7L8.5,1.8C8.4,1.7,8.4,1.6,8.4,1.5s0-0.2,0.1-0.3C8.6,1,8.7,1,8.8,1h3.7c0.1,0,0.2,0,0.3,0.1
	C13,1.2,13,1.3,13,1.5z"/>
</svg>
