<?xml version="1.0" encoding="utf-8"?>
<!-- Generator: Adobe Illustrator 18.0.0, SVG Export Plug-In . SVG Version: 6.00 Build 0)  -->
<!DOCTYPE svg PUBLIC "-//W3C//DTD SVG 1.1//EN" "http://www.w3.org/Graphics/SVG/1.1/DTD/svg11.dtd">
<svg version="1.1" id="Слой_1" xmlns="http://www.w3.org/2000/svg" xmlns:xlink="http://www.w3.org/1999/xlink" x="0px" y="0px" viewBox="0 0 45 40" enable-background="new 0 0 45 40"  width="45" height="40" xml:space="preserve">
<path fill="#F03C3C" d="M30.3,0.3C37.4-1.4,44.5,4.2,45,11.7c0.3,5-1.4,9.3-4.1,13.2C36.2,31.5,30,36,23.1,39.8
	c-0.3,0.2-0.8,0.2-1.1,0.1C14,35.4,6.7,30,2.2,21.4C0.3,17.9-0.6,14,0.4,10c1.2-5,4.2-8.4,9.1-9.6c4.9-1.2,9,0.4,12.3,4.3
	C22,5,22.2,5.3,22.6,5.8C24.5,2.8,27.1,1,30.3,0.3L30.3,0.3z"/>
</svg>
