<?xml version="1.0" encoding="utf-8"?>
<!-- Generator: Adobe Illustrator 18.0.0, SVG Export Plug-In . SVG Version: 6.00 Build 0)  -->
<!DOCTYPE svg PUBLIC "-//W3C//DTD SVG 1.1//EN" "http://www.w3.org/Graphics/SVG/1.1/DTD/svg11.dtd">
<svg version="1.1" id="Слой_1" xmlns="http://www.w3.org/2000/svg" xmlns:xlink="http://www.w3.org/1999/xlink" x="0px" y="0px" width="20" height="20"
	 viewBox="-269 291 19.8 20" enable-background="new -269 291 19.8 20" xml:space="preserve">
<path d="M-255.4,299.6c0-1.4-0.6-2.8-1.6-3.8s-2.4-1.6-3.8-1.6s-2.8,0.6-3.8,1.6s-1.6,2.4-1.6,3.8s0.6,2.8,1.6,3.8s2.4,1.6,3.8,1.6
	s2.8-0.6,3.8-1.6S-255.4,301.2-255.4,299.6z M-249.2,309.6c0,0.4-0.2,0.8-0.4,1c-0.2,0.2-0.6,0.4-1,0.4s-0.8-0.2-1-0.4l-4.2-4.2
	c-1.4,1-3,1.4-4.8,1.4c-1.2,0-2.2-0.2-3.2-0.6s-2-1-2.8-1.8s-1.4-1.6-1.8-2.8s-0.6-2.2-0.6-3.2c0-1.2,0.2-2.2,0.6-3.2s1-2,1.8-2.8
	s1.6-1.4,2.8-1.8c1-0.4,2.2-0.6,3.2-0.6s2.2,0.2,3.2,0.6s2,1,2.8,1.8s1.4,1.6,1.8,2.8c0.4,1,0.6,2.2,0.6,3.2c0,1.8-0.4,3.4-1.4,4.8
	l4.2,4.2C-249.4,308.8-249.2,309.2-249.2,309.6z"/>
</svg>
