<svg xmlns="http://www.w3.org/2000/svg" xmlns:xlink="http://www.w3.org/1999/xlink" width="49" height="10"><defs><path id="a" d="M.083.056h10.079v2.11H.083z"/></defs><g fill="none" fill-rule="evenodd"><path fill="#FFF" stroke="#FFF" stroke-width=".667" d="M3.404 2.14s-.919 6.737 5.04 6.737c5.958 0 5.039-6.738 5.039-6.738"/><g transform="translate(3.32 1.028)"><mask id="b" fill="#fff"><use xlink:href="#a"/></mask><path fill="#756A5D" d="M10.162 1.111c0 .583-2.256 1.055-5.04 1.055-2.782 0-5.039-.472-5.039-1.055C.083.53 2.34.056 5.123.056s5.039.473 5.039 1.055" mask="url(#b)"/></g><path fill="#B0916C" stroke="#FFF" stroke-width=".667" d="M13.482 2.14c0 .582-2.256 1.054-5.04 1.054-2.782 0-5.039-.472-5.039-1.055 0-.582 2.257-1.055 5.04-1.055s5.039.473 5.039 1.055"/><path stroke="#FFF" stroke-width=".774" d="M3.141 3.134S1.17 2.575 1.055 4.488C.96 6.054 3.425 7.73 4.673 7.218"/><path fill="#F03C3C" d="M30.057 1.058c1.42-.328 2.838.779 2.935 2.284.064.995-.27 1.859-.823 2.639-.928 1.31-2.177 2.225-3.54 2.986-.06.034-.163.046-.218.015-1.608-.906-3.078-1.98-3.974-3.697-.37-.709-.55-1.482-.36-2.289.234-1 .833-1.673 1.812-1.915.977-.242 1.798.074 2.455.855.051.061.1.125.171.216.388-.582.896-.945 1.542-1.094z"/><text fill="#FFF" font-family="SofiaProMedium, Sofia Pro" font-size="8" font-weight="400" opacity=".48" transform="translate(1 -1)"><tspan x="16.44" y="8">+</tspan></text><text fill="#FFF" font-family="SofiaProMedium, Sofia Pro" font-size="8" font-weight="400" opacity=".48" transform="translate(1 -1)"><tspan x="34.44" y="8">+</tspan></text><path fill="#FFF" d="M48.791 1.035l-1.946 1.098a.148.148 0 0 0-.037.016l-2.543 1.435c-.02.012-.033.023-.049.035-.049.051-.049.11 0 .161a.164.164 0 0 0 .057.043l1.043.577a.464.464 0 0 0 .413-.004l.413-.24 2.654-1.513a.442.442 0 0 0 .204-.35V1.149c0-.125-.094-.176-.209-.113zM49 3.43c0-.126-.094-.177-.209-.114l-2.547 1.436c-.114.062-.114.168 0 .231l1.043.576a.463.463 0 0 0 .413-.003l1.096-.632A.442.442 0 0 0 49 4.576V3.431zm-4.244 3.78c.114-.062.114-.168 0-.23l-2.547-1.436c-.115-.063-.209-.012-.209.114v1.145a.46.46 0 0 0 .204.349l1.096.631a.464.464 0 0 0 .413.004l1.043-.576zm1.979-1.156c.114-.063.114-.169 0-.232l-4.526-2.545c-.115-.063-.205-.012-.205.114v1.145a.44.44 0 0 0 .209.345l3.07 1.741a.477.477 0 0 0 .413.004l1.039-.572zM45.508 9c.07 0 .143-.02.209-.055.24-.13 3.074-1.741 3.074-1.741a.447.447 0 0 0 .205-.35V5.71c0-.126-.094-.177-.209-.114l-4.526 2.541c-.114.063-.114.169 0 .232l.822.455c.119.062.303.176.425.176zm-.752-6.306c.114-.063.114-.169 0-.232l-2.547-1.435c-.115-.063-.205-.012-.205.114v1.145a.46.46 0 0 0 .205.349l1.095.631a.464.464 0 0 0 .413.004l1.039-.576z"/></g></svg>