<?xml version="1.0" encoding="UTF-8"?>
<svg width="153px" height="52px" viewBox="0 0 153 52" version="1.1" xmlns="http://www.w3.org/2000/svg" xmlns:xlink="http://www.w3.org/1999/xlink">
    <!-- Generator: Sketch 52.5 (67469) - http://www.bohemiancoding.com/sketch -->
    <title>solidus</title>
    <desc>Created with Sketch.</desc>
    <g id="Page-1" stroke="none" stroke-width="1" fill="none" fill-rule="evenodd">
        <g id="solidus" transform="translate(7.000000, 9.000000)" fill="#000000">
            <path d="M3.36538462,26.6135458 C5.12019231,28.501992 8.00480769,29.9601594 10.5528846,29.9601594 C13.3894231,29.9601594 15.0961538,28.3585657 15.0961538,27.0916335 C15.0961538,25.5856574 13.9182692,24.7968127 12.1153846,24.4621514 L9.32692308,23.936255 C2.88461538,22.7410359 1.08173077,20.685259 1.08173077,17.4342629 C1.08173077,13.5856574 4.35096154,10 10.0721154,10 C13.2451923,10 16.0336538,10.9322709 19.1586538,13.1553785 L16.3461538,16.5976096 C13.9423077,14.5657371 11.8028846,14.063745 10.1923077,14.063745 C8.07692308,14.063745 5.98557692,15.0916335 5.98557692,16.9322709 C5.98557692,18.2948207 7.06730769,19.0119522 8.96634615,19.3227092 L13.9423077,20.2549801 C18.0048077,20.9960159 20,22.9322709 20,26.3266932 C20,29.6733068 17.2596154,34 10.3125,34 C6.44230769,34 3.125,32.6374502 0,30.0079681 L3.36538462,26.6135458 Z" id="Path"></path>
            <path d="M34.5,10 C42.4047619,10 47,15.988024 47,22 C47,28.011976 42.4047619,34 34.5,34 C26.5952381,34 22,28.011976 22,22 C22,15.988024 26.5714286,10 34.5,10 M34.5,29.4251497 C38.7619048,29.4251497 41.8571429,26.1197605 41.8571429,22.0239521 C41.8571429,17.9281437 38.7619048,14.6227545 34.5,14.6227545 C30.2380952,14.6227545 27.1428571,17.9281437 27.1428571,22.0239521 C27.1428571,26.1197605 30.2380952,29.4251497 34.5,29.4251497" id="Shape" fill-rule="nonzero"></path>
            <path d="M64.5,4 C65.8834951,4 67,5.11650485 67,6.5 C67,7.88349515 65.8834951,9 64.5,9 C63.1165049,9 62,7.88349515 62,6.5 C62,5.11650485 63.1165049,4 64.5,4" id="Path"></path>
            <rect id="Rectangle" x="62" y="14" width="5" height="20"></rect>
            <path d="M89.1428571,4 L89.1428571,12.5273159 C87.1428571,11.0783848 84.5714286,10.1995249 81.5,10.1995249 C73.5952381,10.1995249 69,16.1377672 69,22.0997625 C69,28.0617577 73.5952381,34 81.5,34 C84.5714286,34 87.1428571,33.0973872 89.1428571,31.672209 L89.1428571,34 L94,34 L94,4 L89.1428571,4 Z M81.5,29.4394299 C77.2380952,29.4394299 74.1428571,26.1615202 74.1428571,22.0997625 C74.1428571,18.0380048 77.2380952,14.760095 81.5,14.760095 C85.7619048,14.760095 88.8571429,18.0380048 88.8571429,22.0997625 C88.8571429,26.1615202 85.7619048,29.4394299 81.5,29.4394299 Z" id="Shape" fill-rule="nonzero"></path>
            <path d="M97.0482759,10 L101.972414,10 L101.972414,23.3413174 C101.972414,26.6946108 104.434483,29.0898204 107.524138,29.0898204 C110.613793,29.0898204 113.075862,26.6946108 113.075862,23.3413174 L113.075862,10 L118,10 L118,23.7724551 C118,30.1676647 112.97931,34 107.5,34 C102.044828,34 97,30.1916168 97,23.7724551 L97,10 L97.0482759,10 Z" id="Path"></path>
            <path d="M122.365385,26.5896414 C124.120192,28.4780876 127.004808,29.936255 129.552885,29.936255 C132.389423,29.936255 134.096154,28.3346614 134.096154,27.0677291 C134.096154,25.561753 132.918269,24.7729084 131.115385,24.438247 L128.326923,23.9123506 C121.908654,22.7410359 120.105769,20.6613546 120.105769,17.4342629 C120.105769,13.5856574 123.375,10 129.096154,10 C132.269231,10 135.057692,10.9322709 138.182692,13.1553785 L135.370192,16.5976096 C132.966346,14.5657371 130.826923,14.063745 129.216346,14.063745 C127.100962,14.063745 125.009615,15.0916335 125.009615,16.9322709 C125.009615,18.2948207 126.091346,19.0119522 127.990385,19.3227092 L132.942308,20.2549801 C137.004808,20.9960159 139,22.9322709 139,26.3266932 C139,29.6733068 136.259615,34 129.3125,34 C125.442308,34 122.125,32.6374502 119,30.0079681 L122.365385,26.5896414 Z" id="Path"></path>
            <path d="M56.3986486,28.6315789 C55.0506757,27.8442105 54.5067568,26.9614035 54.4358108,24.6708772 L54.4358108,8.87578947 C54.4358108,4.1277193 52.1182432,2.40982456 47.1283784,0 L45,3.84140351 L47.6013514,5.3445614 C48.9493243,6.13192982 49.4932432,7.01473684 49.5641892,9.30526316 L49.5641892,25.1242105 C49.5641892,29.8722807 51.8817568,31.5901754 56.8716216,34 L59,30.1585965 L56.3986486,28.6315789 Z" id="Path"></path>
        </g>
    </g>
</svg>