<svg width="800" height="154" viewBox="0 0 800 154" fill="none" xmlns="http://www.w3.org/2000/svg">
<g clip-path="url(#clip0_1325_2710)">
<path d="M47.8141 51.0973V102.195L0 54.3805C9.53862 22.9134 38.7766 0 73.3714 0C107.966 0 135.13 21.3237 145.654 51.0973H47.8141Z" fill="#EF3023"/>
<path d="M146.725 98.9286C137.187 130.413 107.949 153.309 73.3541 153.309C38.7593 153.309 11.595 131.968 1.07137 102.212H98.9114V51.0973L146.725 98.9114V98.9286Z" fill="#EF3023"/>
<path d="M282.53 99.9481C282.53 79.765 265.734 73.9934 251.028 69.9499C236.478 65.9063 225.972 64.3165 225.972 53.6547C225.972 45.8614 233.109 40.0898 243.615 40.0898C254.121 40.0898 261.811 46.4316 263.072 56.0912H281.13C278.469 36.0463 263.919 23.6392 243.615 23.6392C223.311 23.6392 207.776 36.772 207.776 53.9312C207.776 74.4081 224.434 80.1797 239.278 84.2232C253.828 88.1113 264.61 89.8565 264.61 100.518C264.61 108.156 256.627 113.928 245.568 113.928C232.556 113.928 224.849 107.724 223.173 96.4748H204.7C206.515 117.246 222.62 130.361 245.568 130.361C267.271 130.361 282.513 118.11 282.513 99.9309L282.53 99.9481Z" fill="#222222"/>
<path d="M345.637 130.378C375.739 130.378 396.44 106.878 396.44 77.0175C396.44 47.1574 375.721 23.6565 345.637 23.6565C315.552 23.6565 294.833 47.1574 294.833 77.0175C294.833 106.878 315.552 130.378 345.637 130.378ZM345.637 112.787C326.888 112.787 313.029 97.3562 313.029 77.0175C313.029 56.6788 326.888 41.2477 345.637 41.2477C364.385 41.2477 378.244 56.9725 378.244 77.0175C378.244 97.0624 362.848 112.787 345.637 112.787Z" fill="#222222"/>
<path d="M474.961 111.629H428.063V25.0906H410.42V128.927H474.944V111.612L474.961 111.629Z" fill="#222222"/>
<path d="M493.399 25.0906V128.927H511.042V25.0906H493.399Z" fill="#222222"/>
<path d="M566.753 25.0908H531.208V128.927H566.753C594.609 128.927 615.189 108.156 615.189 77.0002C615.189 45.8442 594.609 25.0735 566.753 25.0735V25.0908ZM566.338 111.63H548.834V42.4054H566.338C584.811 42.4054 596.993 56.2468 596.993 77.0175C596.993 97.7882 584.811 111.63 566.338 111.63Z" fill="#222222"/>
<path d="M708.156 25.0906H690.513V89.7009C690.513 103.11 683.238 112.77 668.671 112.77C655.797 112.77 646.829 104.977 646.829 89.7009V25.0906H629.186V90.1329C629.186 114.221 645.274 130.378 668.654 130.378C692.034 130.378 708.122 114.221 708.122 90.1329V25.0906H708.156Z" fill="#222222"/>
<path d="M800 99.9481C800 79.765 783.204 73.9934 768.498 69.9499C753.949 65.9063 743.442 64.3165 743.442 53.6547C743.442 45.8614 750.579 40.0898 761.085 40.0898C771.592 40.0898 779.281 46.4316 780.543 56.0912H798.6C795.939 36.0463 781.389 23.6392 761.085 23.6392C740.781 23.6392 725.246 36.772 725.246 53.9312C725.246 74.4081 741.904 80.1797 756.748 84.2232C771.298 88.1113 782.081 89.8565 782.081 100.518C782.081 108.156 774.097 113.928 763.038 113.928C750.026 113.928 742.319 107.724 740.643 96.4748H722.17C723.985 117.246 740.09 130.361 763.038 130.361C784.724 130.361 799.983 118.11 799.983 99.9309L800 99.9481Z" fill="#222222"/>
</g>
<defs>
<clipPath id="clip0_1325_2710">
<rect width="800" height="153.309" fill="white"/>
</clipPath>
</defs>
</svg>
