<svg width="199" height="38" viewBox="0 0 199 38" fill="none" xmlns="http://www.w3.org/2000/svg">
<g clip-path="url(#clip0_708_470)">
<path d="M11.88 12.6652V25.3305L0 13.479C2.36998 5.67944 9.63448 0 18.23 0C26.8254 0 33.5747 5.28539 36.1894 12.6652H11.88Z" fill="#EF3023"/>
<path d="M36.4556 24.521C34.0856 32.3248 26.8211 38 18.2257 38C9.63019 38 2.8809 32.7103 0.266193 25.3348H24.5757V12.6652L36.4556 24.5167V24.521Z" fill="#EF3023"/>
<path d="M70.1978 24.7737C70.1978 19.771 66.0246 18.3404 62.3708 17.3382C58.7558 16.3359 56.1453 15.9419 56.1453 13.2992C56.1453 11.3675 57.9185 9.93692 60.5289 9.93692C63.1394 9.93692 65.0499 11.5088 65.3634 13.9031H69.85C69.1888 8.93467 65.5737 5.85938 60.5289 5.85938C55.4841 5.85938 51.6243 9.11456 51.6243 13.3677C51.6243 18.4432 55.7632 19.8738 59.4513 20.8761C63.0664 21.8398 65.7455 22.2724 65.7455 24.9151C65.7455 26.8082 63.7619 28.2388 61.0141 28.2388C57.7811 28.2388 55.8663 26.7011 55.4498 23.9128H50.8601C51.3109 29.0611 55.3124 32.312 61.0141 32.312C66.4067 32.312 70.1935 29.2753 70.1935 24.7694L70.1978 24.7737Z" fill="white"/>
<path d="M85.8775 32.3164C93.3567 32.3164 98.5002 26.4914 98.5002 19.0901C98.5002 11.6888 93.3524 5.86377 85.8775 5.86377C78.4026 5.86377 73.2548 11.6888 73.2548 19.0901C73.2548 26.4914 78.4026 32.3164 85.8775 32.3164ZM85.8775 27.9562C81.2191 27.9562 77.7758 24.1314 77.7758 19.0901C77.7758 14.0488 81.2191 10.224 85.8775 10.224C90.5359 10.224 93.9792 14.1217 93.9792 19.0901C93.9792 24.0585 90.1538 27.9562 85.8775 27.9562Z" fill="white"/>
<path d="M118.01 27.6692H106.357V6.21924H101.974V31.9566H118.005V27.6649L118.01 27.6692Z" fill="white"/>
<path d="M122.591 6.21924V31.9566H126.974V6.21924H122.591Z" fill="white"/>
<path d="M140.816 6.21913H131.985V31.9565H140.816C147.737 31.9565 152.851 26.8082 152.851 19.0857C152.851 11.3632 147.737 6.21484 140.816 6.21484V6.21913ZM140.713 27.6691H136.364V10.5108H140.713C145.303 10.5108 148.33 13.9416 148.33 19.09C148.33 24.2383 145.303 27.6691 140.713 27.6691Z" fill="white"/>
<path d="M175.95 6.21924H171.566V22.2339C171.566 25.5576 169.758 27.9519 166.139 27.9519C162.94 27.9519 160.712 26.0202 160.712 22.2339V6.21924H156.328V22.341C156.328 28.3117 160.326 32.3164 166.135 32.3164C171.944 32.3164 175.941 28.3117 175.941 22.341V6.21924H175.95Z" fill="white"/>
<path d="M198.769 24.7737C198.769 19.771 194.596 18.3404 190.942 17.3382C187.327 16.3359 184.717 15.9419 184.717 13.2992C184.717 11.3675 186.49 9.93692 189.1 9.93692C191.711 9.93692 193.621 11.5088 193.935 13.9031H198.421C197.76 8.93467 194.145 5.85938 189.1 5.85938C184.056 5.85938 180.196 9.11456 180.196 13.3677C180.196 18.4432 184.335 19.8738 188.023 20.8761C191.638 21.8398 194.317 22.2724 194.317 24.9151C194.317 26.8082 192.333 28.2388 189.586 28.2388C186.353 28.2388 184.438 26.7011 184.021 23.9128H179.432C179.882 29.0611 183.884 32.312 189.586 32.312C194.974 32.312 198.765 29.2753 198.765 24.7694L198.769 24.7737Z" fill="white"/>
</g>
<defs>
<clipPath id="clip0_708_470">
<rect width="198.769" height="38" fill="white"/>
</clipPath>
</defs>
</svg>
