<svg width="463" height="89" viewBox="0 0 463 89" fill="none" xmlns="http://www.w3.org/2000/svg">
<g clip-path="url(#clip0_1301_1445)">
<path d="M27.67 29.57V59.14L0 31.47C5.52 13.26 22.44 0 42.46 0C62.48 0 78.2 12.34 84.29 29.57H27.67Z" fill="#EF3023"/>
<path d="M84.91 57.25C79.39 75.47 62.47 88.72 42.45 88.72C22.43 88.72 6.71 76.37 0.62 59.15H57.24V29.57L84.91 57.24V57.25Z" fill="#EF3023"/>
<path d="M163.5 57.8399C163.5 46.1599 153.78 42.8199 145.27 40.4799C136.85 38.1399 130.77 37.2199 130.77 31.0499C130.77 26.5399 134.9 23.1999 140.98 23.1999C147.06 23.1999 151.51 26.8699 152.24 32.4599H162.69C161.15 20.8599 152.73 13.6799 140.98 13.6799C129.23 13.6799 120.24 21.2799 120.24 31.2099C120.24 43.0599 129.88 46.3999 138.47 48.7399C146.89 50.9899 153.13 51.9999 153.13 58.1699C153.13 62.5899 148.51 65.9299 142.11 65.9299C134.58 65.9299 130.12 62.3399 129.15 55.8299H118.46C119.51 67.8499 128.83 75.4399 142.11 75.4399C154.67 75.4399 163.49 68.3499 163.49 57.8299L163.5 57.8399Z" fill="#222222"/>
<path d="M200.02 75.4499C217.44 75.4499 229.42 61.8499 229.42 44.5699C229.42 27.2899 217.43 13.6899 200.02 13.6899C182.61 13.6899 170.62 27.2899 170.62 44.5699C170.62 61.8499 182.61 75.4499 200.02 75.4499ZM200.02 65.2699C189.17 65.2699 181.15 56.3399 181.15 44.5699C181.15 32.7999 189.17 23.8699 200.02 23.8699C210.87 23.8699 218.89 32.9699 218.89 44.5699C218.89 56.1699 209.98 65.2699 200.02 65.2699Z" fill="#222222"/>
<path d="M274.86 64.6H247.72V14.52H237.51V74.61H274.85V64.59L274.86 64.6Z" fill="#222222"/>
<path d="M285.53 14.52V74.61H295.74V14.52H285.53Z" fill="#222222"/>
<path d="M327.98 14.52H307.41V74.61H327.98C344.1 74.61 356.01 62.59 356.01 44.56C356.01 26.53 344.1 14.51 327.98 14.51V14.52ZM327.74 64.6H317.61V24.54H327.74C338.43 24.54 345.48 32.55 345.48 44.57C345.48 56.59 338.43 64.6 327.74 64.6Z" fill="#222222"/>
<path d="M409.81 14.52H399.6V51.91C399.6 59.67 395.39 65.26 386.96 65.26C379.51 65.26 374.32 60.75 374.32 51.91V14.52H364.11V52.16C364.11 66.1 373.42 75.45 386.95 75.45C400.48 75.45 409.79 66.1 409.79 52.16V14.52H409.81Z" fill="#222222"/>
<path d="M462.96 57.8399C462.96 46.1599 453.24 42.8199 444.73 40.4799C436.31 38.1399 430.23 37.2199 430.23 31.0499C430.23 26.5399 434.36 23.1999 440.44 23.1999C446.52 23.1999 450.97 26.8699 451.7 32.4599H462.15C460.61 20.8599 452.19 13.6799 440.44 13.6799C428.69 13.6799 419.7 21.2799 419.7 31.2099C419.7 43.0599 429.34 46.3999 437.93 48.7399C446.35 50.9899 452.59 51.9999 452.59 58.1699C452.59 62.5899 447.97 65.9299 441.57 65.9299C434.04 65.9299 429.58 62.3399 428.61 55.8299H417.92C418.97 67.8499 428.29 75.4399 441.57 75.4399C454.12 75.4399 462.95 68.3499 462.95 57.8299L462.96 57.8399Z" fill="#222222"/>
</g>
<defs>
<clipPath id="clip0_1301_1445">
<rect width="462.96" height="88.72" fill="white"/>
</clipPath>
</defs>
</svg>
