<?xml version="1.0" encoding="utf-8"?>
<!-- Generator: Adobe Illustrator 18.0.0, SVG Export Plug-In . SVG Version: 6.00 Build 0)  -->
<!DOCTYPE svg PUBLIC "-//W3C//DTD SVG 1.1//EN" "http://www.w3.org/Graphics/SVG/1.1/DTD/svg11.dtd">
<svg version="1.1" id="Слой_1" xmlns="http://www.w3.org/2000/svg" xmlns:xlink="http://www.w3.org/1999/xlink" x="0px" y="0px"
	 viewBox="0 560 20 20" enable-background="new 0 560 20 20" xml:space="preserve">
<path fill="#FFFFFF" d="M20,576v1.6c0,0.3-0.1,0.4-0.3,0.6c-0.1,0.1-0.4,0.3-0.6,0.3H0.9c-0.3,0-0.4-0.1-0.6-0.3
	c-0.1-0.1-0.3-0.4-0.3-0.6V576c0-0.3,0.1-0.4,0.3-0.6c0.1-0.1,0.4-0.3,0.6-0.3h18.3c0.3,0,0.4,0.1,0.6,0.3
	C19.9,575.6,20,575.9,20,576z M20,569.5v1.6c0,0.3-0.1,0.4-0.3,0.6c-0.1,0.1-0.4,0.3-0.6,0.3H0.9c-0.3,0-0.4-0.1-0.6-0.3
	c-0.1-0.1-0.3-0.4-0.3-0.6v-1.6c0-0.3,0.1-0.4,0.3-0.6c0.1-0.1,0.4-0.3,0.6-0.3h18.3c0.3,0,0.4,0.1,0.6,0.3
	C19.9,569.1,20,569.3,20,569.5z M20,562.9v1.6c0,0.3-0.1,0.4-0.3,0.6c-0.1,0.1-0.4,0.3-0.6,0.3H0.9c-0.3,0-0.4-0.1-0.6-0.3
	C0.1,565,0,564.8,0,564.5v-1.6c0-0.3,0.1-0.4,0.3-0.6c0.1-0.1,0.4-0.3,0.6-0.3h18.3c0.3,0,0.4,0.1,0.6,0.3
	C19.9,562.4,20,562.6,20,562.9z"/>
</svg>
