<svg xmlns="http://www.w3.org/2000/svg" width="20" height="20"><g fill="none" fill-rule="evenodd"><path class="inherit-fill" fill="#000" fill-rule="nonzero" d="M19.162 7.25C17.102.379 14.123-1.224 7.251.838.379 2.898-1.225 5.877.837 12.75c2.062 6.872 5.04 8.476 11.912 6.414 6.873-2.062 8.476-5.04 6.414-11.912zm-3.475 4.462l-1.296.434.45 1.342a1.037 1.037 0 0 1-1.966.657l-.45-1.34-2.672.895.449 1.34a1.037 1.037 0 1 1-1.965.659l-.45-1.341-1.296.434a1.037 1.037 0 0 1-.659-1.966l1.297-.434-.862-2.572-1.296.434a1.037 1.037 0 1 1-.658-1.966l1.296-.435-.45-1.34a1.037 1.037 0 1 1 1.967-.658l.449 1.34 2.672-.895-.45-1.34a1.038 1.038 0 0 1 1.967-.659l.449 1.341 1.296-.434a1.037 1.037 0 1 1 .658 1.966l-1.296.434.862 2.572 1.296-.434a1.038 1.038 0 0 1 .658 1.967zm-7.454-2.55l.862 2.571 2.672-.895-.861-2.572-2.673.895z"/><path d="M-2-2h24v24H-2z"/></g></svg>