<svg xmlns="http://www.w3.org/2000/svg" width="18" height="15"><g fill="none" fill-rule="evenodd"><path d="M-3-5h24v24H-3z"/><path class="inherit-fill" fill="#000" fill-rule="nonzero" d="M5.654 15c6.793 0 10.51-5.773 10.51-10.77 0-.163 0-.325-.008-.487A7.632 7.632 0 0 0 18 1.779a7.345 7.345 0 0 1-2.125.598A3.793 3.793 0 0 0 17.503.281a7.24 7.24 0 0 1-2.348.915A3.646 3.646 0 0 0 12.46 0c-2.038 0-3.695 1.698-3.695 3.787 0 .295.036.583.094.864C5.79 4.496 3.068 2.982 1.246.694A3.858 3.858 0 0 0 .75 2.598c0 1.314.656 2.473 1.642 3.152a3.667 3.667 0 0 1-1.67-.472v.052c0 1.83 1.274 3.366 2.96 3.713a3.52 3.52 0 0 1-.973.133c-.237 0-.468-.022-.691-.067.468 1.506 1.837 2.599 3.45 2.628A7.295 7.295 0 0 1 0 13.31 10.322 10.322 0 0 0 5.654 15"/></g></svg>